<?xml version="1.0" encoding="UTF-8"?>
<!DOCTYPE svg PUBLIC "-//W3C//DTD SVG 1.1//EN" "http://www.w3.org/Graphics/SVG/1.1/DTD/svg11.dtd">
<!-- Creator: CorelDRAW X6 -->
<svg xmlns="http://www.w3.org/2000/svg" xml:space="preserve" width="841mm" height="594mm" version="1.1" style="shape-rendering:geometricPrecision; text-rendering:geometricPrecision; image-rendering:optimizeQuality; fill-rule:evenodd; clip-rule:evenodd"
viewBox="0 0 84100 59400"
 xmlns:xlink="http://www.w3.org/1999/xlink">
 <defs>
  <style type="text/css">
   <![CDATA[
    .fil1 {fill:#9C1117}
    .fil2 {fill:#CACACA;fill-opacity:0.349020}
    .fil0 {fill:#2D2B2B;fill-opacity:0.819608}
   ]]>
  </style>
 </defs>
 <g id="Слой_x0020_1">
  <metadata id="CorelCorpID_0Corel-Layer"/>
  <g id="_797183712">
   <g id="__x0023_2d2b2bd0">
    <path class="fil0" d="M40643 3841l2167 0c1076,335 2371,452 3096,1430 558,713 315,1670 33,2442 -468,1151 -1150,2201 -1856,3218 -875,1324 -1839,2590 -2634,3967 -141,252 -276,512 -348,793 929,41 1928,-81 2784,364 655,433 544,1328 473,2003 -82,1051 -493,2060 -500,3116 663,40 1337,-72 1993,68 382,80 752,382 771,796 127,1026 -265,2031 -849,2858 -623,916 -1500,1610 -2281,2381 -548,515 -1043,1098 -1683,1505 -564,363 -1230,500 -1868,675 687,22 1372,16 2059,7 1529,17 2953,-622 4428,-923 579,-108 1231,-165 1761,138 288,554 243,1221 194,1825 -174,1413 -1179,2542 -2276,3367 -906,663 -1994,1045 -3096,1213 -1203,165 -2423,248 -3633,108 -737,-36 -1477,-103 -2213,-43 -161,461 -223,956 -435,1400 -504,1068 -1232,2006 -1911,2966 -1737,2484 -3425,5003 -5067,7550 -1171,1949 -2462,3842 -3374,5933 -274,607 -443,1266 -805,1831 -276,439 -837,504 -1308,532 -712,-8 -1524,-175 -1965,-790 -497,-681 -429,-1580 -344,-2372 265,-1527 849,-2976 1502,-4373 1928,-4140 4657,-7832 6769,-11870 282,-559 610,-1113 727,-1735 -776,-170 -1581,-94 -2370,-122 -646,5 -1320,-28 -1930,221 -538,222 -806,815 -1345,1034 -366,146 -774,175 -1163,124 -408,-56 -702,-419 -807,-798 -105,-446 10,-905 -43,-1355 -496,-261 -992,-552 -1531,-710 -480,152 -904,451 -1399,564 -951,235 -1949,202 -2919,139 -519,-28 -816,-497 -1197,-780 -509,55 -956,347 -1447,475 -1043,302 -2186,598 -3253,240 -620,-208 -958,-812 -1475,-1169 -513,308 -982,708 -1571,868 -1304,361 -2673,454 -4020,379 -1194,-105 -2429,-551 -3207,-1503 -655,-734 -909,-1700 -1224,-2608l0 -3352c369,-1122 521,-2301 880,-3425 763,-2404 1806,-4717 3078,-6894 1250,-2132 2675,-4184 4440,-5925 1140,-1138 2428,-2182 3949,-2760 1303,-541 2796,-497 4123,-65 571,178 1174,388 1774,206 974,-243 1984,-281 2967,-451 224,-434 372,-1086 955,-1143 1168,-39 2359,-95 3509,159 573,122 1129,435 1432,950 277,490 383,1071 324,1629 -107,926 -392,1827 -790,2668 -671,1433 -1477,2802 -2386,4097 -136,207 -281,416 -346,659 727,300 1538,551 2026,1215 550,630 546,1499 623,2284 535,-912 451,-2014 831,-2979 121,-377 590,-356 909,-416 1506,-216 3071,252 4255,1198 258,211 494,451 768,645 346,-440 560,-962 853,-1436 989,-1642 1869,-3348 2838,-5001 1114,-2018 2243,-4059 2870,-6290 94,-403 319,-777 712,-949m-138 454c-349,538 -391,1205 -624,1791 -1121,2947 -2842,5605 -4324,8373 -714,1247 -1495,2460 -2066,3782 -699,-873 -1599,-1604 -2664,-1972 -788,-317 -1649,-242 -2478,-227 -202,9 -432,8 -579,173 -240,499 -231,1066 -359,1596 -165,801 -515,1562 -998,2221 -184,-197 -138,-479 -153,-725 -1,-490 -49,-979 -131,-1462 -107,-540 -465,-1000 -903,-1319 -548,-381 -1242,-475 -1786,-864 182,-379 448,-706 675,-1057 717,-1083 1415,-2184 1993,-3350 464,-983 914,-1998 1045,-3089 68,-679 -93,-1456 -665,-1887 -534,-415 -1238,-450 -1881,-535 -796,-27 -1594,-24 -2389,2 -501,174 -493,770 -535,1206 -947,3 -1886,133 -2819,288 -474,68 -945,276 -1429,169 -573,-128 -1124,-343 -1698,-472 -1416,-299 -2920,-47 -4169,685 -2428,1396 -4266,3594 -5854,5858 -1703,2508 -3138,5212 -4119,8084 -742,2076 -1273,4268 -1182,6487 -48,1610 543,3360 1937,4278 1203,781 2694,718 4067,657 912,-98 1857,-202 2672,-658 331,-181 582,-469 880,-693 35,0 105,1 139,1 402,311 706,730 1101,1049 377,299 876,369 1344,393 1032,-31 2032,-331 2994,-688 280,-99 557,-228 859,-236 348,319 584,875 1142,845 1118,1 2310,148 3349,-364 299,-133 547,-378 865,-463 594,198 1083,779 1757,725 126,-209 217,-436 292,-667 180,-151 323,-339 482,-510 438,-493 1013,-839 1604,-1119 1305,-598 2741,-816 4153,-983 527,-67 1078,-2 1586,-182 572,72 1149,7 1724,19 168,-18 359,25 510,-72 579,120 1172,63 1758,72 440,-3 884,33 1321,-34 299,40 605,53 906,20 314,-117 596,-361 951,-315 760,31 1542,-13 2247,-331 1137,-484 1870,-1525 2769,-2326 833,-717 1625,-1528 2114,-2526 339,-638 411,-1382 307,-2088 -206,-235 -531,-336 -835,-338 -668,-24 -1338,3 -2006,2 144,-1542 739,-3045 609,-4615 25,-361 -306,-614 -617,-707 -891,-300 -1852,-59 -2763,-206l-32 -103c422,-1071 1081,-2026 1718,-2978 822,-1225 1695,-2415 2463,-3676 507,-863 1000,-1774 1129,-2781 70,-557 -240,-1108 -709,-1398 -1008,-663 -2255,-807 -3433,-865 -416,-26 -884,-127 -1261,102m5481 24706c-1241,325 -2472,749 -3766,795 -1668,35 -3335,0 -5001,-5 -910,27 -1820,-147 -2728,-22 -1138,45 -2278,8 -3416,59 -1985,216 -4082,393 -5814,1486 -874,501 -1478,1421 -1614,2417 -31,407 -82,873 205,1207 236,332 700,215 1046,194 633,-91 920,-740 1439,-1030 722,-384 1564,-336 2357,-343 900,23 1816,-25 2701,184 -159,954 -693,1782 -1115,2636 -2420,4488 -5555,8607 -7372,13406 -385,1096 -742,2242 -652,3418 6,489 238,965 631,1258 517,406 1223,296 1836,288 518,20 698,-542 863,-930 499,-1263 1072,-2500 1770,-3666 959,-1606 1915,-3216 2954,-4772 1527,-2262 3002,-4559 4599,-6772 649,-918 1339,-1836 1713,-2908 141,-383 107,-818 273,-1187 490,-3 974,98 1464,93 1516,22 3043,121 4552,-53 1935,-256 3787,-1370 4741,-3097 472,-813 367,-1790 298,-2686 -616,-339 -1324,-100 -1962,30z"/>
    <path class="fil0" d="M13363 12603c192,-171 413,-313 662,-385 -86,606 -391,1150 -621,1710 -905,1939 -1874,3859 -3072,5636 -548,821 -1173,1590 -1908,2249 -53,567 -105,1179 131,1713 1163,372 2417,77 3491,-431 197,-52 397,-243 601,-169 0,1139 -677,2127 -1272,3047 -1016,1391 -2231,2683 -3745,3536 -740,423 -1590,758 -2459,623 -363,-713 -321,-1538 -281,-2313 266,-2106 1122,-4077 2049,-5968 1278,-2492 2773,-4873 4486,-7088 601,-758 1212,-1516 1938,-2160m-664 1166c-675,767 -1306,1572 -1902,2403 -2076,2958 -3964,6103 -5101,9551 -416,1200 -601,2488 -435,3753 28,125 89,243 181,335 405,39 813,-40 1188,-191 1125,-443 2088,-1209 2942,-2053 1174,-1174 2197,-2561 2721,-4151 -230,27 -448,106 -659,197 -1015,473 -2213,531 -3284,226 -431,-642 -311,-1480 -268,-2210 386,-402 856,-724 1184,-1183 1735,-2252 2999,-4819 4162,-7400 -276,203 -516,452 -729,722z"/>
    <path class="fil0" d="M55506 30439c1147,-310 2336,-617 3534,-483 513,81 839,526 1273,763 213,-26 414,-108 616,-178 885,-339 1824,-533 2769,-599 672,-27 1425,16 1957,476 389,332 361,923 180,1356 -443,998 -1458,1597 -1902,2594 1031,-49 2002,-589 3049,-442 368,65 817,191 957,583 238,604 197,1313 -110,1885 -308,587 -865,973 -1292,1463 890,350 1978,113 2760,741 685,601 641,1592 746,2421 568,-423 985,-1008 1512,-1479 935,-956 2119,-1721 3449,-1969 1346,-182 2693,99 4017,323 883,198 1922,485 2343,1375 567,1236 283,2617 203,3916 604,94 1247,-56 1823,192 350,148 558,494 662,846l0 1130c-838,1805 -2205,3287 -3623,4655 -647,602 -1388,1189 -2287,1326 -837,150 -1780,-57 -2515,466 -782,572 -1351,1383 -2140,1951 -1068,851 -2367,1313 -3621,1810l-1450 0c-773,-107 -1549,-467 -1973,-1148 -612,-834 -669,-1897 -776,-2888 -635,-52 -1370,-76 -1881,369 -349,290 -643,638 -964,958 -759,795 -1691,1404 -2669,1894 -1283,641 -2805,876 -4201,510 -751,-189 -1251,-792 -1702,-1375 -584,242 -1067,667 -1635,942 -1078,572 -2340,682 -3535,555 -572,-81 -971,-527 -1437,-816 -384,-3 -730,202 -1084,325 -1039,425 -2185,666 -3303,474 -556,-98 -912,-573 -1377,-840 -974,316 -1913,796 -2950,881 -638,42 -1308,48 -1899,-227 -361,-157 -671,-417 -1042,-551 -895,406 -1803,829 -2794,938l-588 0c-782,-149 -1579,-534 -1954,-1273 -684,-1117 -585,-2472 -538,-3725 396,-3145 1745,-6099 3518,-8701 808,-1242 1724,-2432 2878,-3374 945,-750 2107,-1250 3322,-1294 742,-34 1472,146 2177,364 1261,431 2677,82 3891,697 733,322 1241,958 1682,1602 219,-310 456,-635 534,-1013 -126,-588 -431,-1198 -177,-1799 278,-768 1093,-1072 1749,-1439 817,-452 1269,-1323 1556,-2177 210,-626 526,-1253 1092,-1628 958,-652 2074,-1016 3171,-1361m-357 467c-835,282 -1683,566 -2431,1040 -494,299 -876,766 -1055,1316 -347,979 -766,2074 -1738,2590 -559,351 -1294,550 -1607,1186 -144,613 -17,1237 201,1813 -247,601 -587,1169 -950,1706 -282,-435 -493,-924 -862,-1299 -555,-567 -1312,-928 -2096,-1024 -566,-27 -1128,-110 -1693,-134 -575,-34 -1100,-291 -1655,-419 -1281,-338 -2701,-128 -3820,583 -1132,701 -2054,1691 -2825,2769 -971,1345 -1890,2742 -2569,4261 -789,1658 -1380,3429 -1594,5258 0,1005 -146,2056 232,3016 249,722 818,1372 1572,1575 929,167 1880,-34 2721,-440 371,-144 700,-410 1096,-480 357,198 675,466 1056,623 626,310 1348,228 2023,200 1018,-169 1946,-657 2912,-997 327,392 664,818 1178,968 946,153 1921,31 2813,-314 573,-174 1105,-501 1703,-581 408,286 696,771 1217,890 1308,166 2706,20 3847,-691 543,-291 1014,-757 1629,-889 288,459 541,979 1040,1250 750,488 1677,398 2528,364 1212,-141 2306,-741 3317,-1391 845,-538 1482,-1322 2209,-1997 668,-608 1644,-505 2477,-474 -17,1142 110,2415 912,3302 676,772 1816,873 2762,659 1885,-421 3611,-1471 4910,-2892 517,-565 1159,-1080 1948,-1163 788,-52 1621,2 2350,-357 571,-304 1050,-749 1511,-1197 1073,-1057 2102,-2181 2880,-3478 324,-554 527,-1226 393,-1865 -74,-409 -516,-581 -883,-616 -554,-39 -1109,5 -1663,-6 -8,-134 -1,-268 19,-399 197,-937 133,-1899 134,-2848 19,-784 -549,-1487 -1255,-1775 -1037,-426 -2171,-466 -3262,-650 -342,-40 -685,-37 -1028,-36 -1334,-17 -2585,651 -3545,1537 -873,726 -1539,1663 -2404,2398 -163,-808 -88,-1660 -383,-2440 -150,-409 -523,-720 -953,-791 -857,-165 -1731,-240 -2576,-465 13,-120 43,-244 152,-314 655,-573 1415,-1141 1666,-2018 57,-434 75,-925 -183,-1303 -717,-374 -1538,-169 -2281,-1 -652,177 -1336,172 -2005,149 18,-203 199,-325 313,-475 449,-498 800,-1076 1283,-1544 367,-414 809,-881 773,-1475 23,-519 -576,-726 -993,-809 -1329,-164 -2651,214 -3889,662 -180,53 -363,141 -555,110 -361,-281 -662,-674 -1125,-795 -1330,-127 -2645,208 -3900,616z"/>
   </g>
   <g id="__x0023_9c1117ff">
    <path class="fil1" d="M39023 9857c792,-1585 1605,-3188 1962,-4938 1280,-72 2669,92 3750,835 448,255 468,816 383,1266 -225,493 -597,903 -862,1374 -3544,5758 -7357,11353 -10695,17235 -685,1246 -1400,2482 -1927,3806 -508,180 -1058,115 -1586,182 -1413,167 -2848,385 -4153,983 -591,280 -1166,625 -1604,1119 -159,172 -302,359 -482,510 -350,-24 -718,-10 -1040,-168 -67,-461 -31,-935 -150,-1390 -558,209 -999,630 -1511,924 -999,633 -2230,858 -3395,710 -674,-264 -624,-1126 -910,-1683 -1033,893 -2281,1633 -3678,1699 -551,8 -1236,111 -1638,-359 -441,-591 -184,-1375 -281,-2054 -467,223 -838,590 -1254,888 -918,675 -1964,1211 -3099,1396 -1184,201 -2458,257 -3587,-219 -899,-372 -1549,-1194 -1865,-2097 -431,-1165 -313,-2432 -264,-3648 367,-2676 1250,-5274 2498,-7665 847,-1714 1702,-3442 2897,-4945 862,-1068 1708,-2152 2623,-3174 1075,-1043 2313,-1947 3702,-2527 1113,-442 2411,-705 3546,-190 512,206 864,642 1280,982 621,-264 1118,-772 1783,-947 652,-200 1504,-238 2024,266 -441,1211 -1189,2277 -1836,3384 -1595,2476 -2847,5164 -4601,7538 -741,1026 -1546,2024 -2550,2806 -872,714 -1986,1251 -3138,1120 -198,30 -346,-232 -230,-384 231,-436 632,-742 930,-1128 1059,-1359 1821,-2914 2627,-4430 915,-1800 1830,-3603 2850,-5348 350,-614 829,-1145 1145,-1778 -1250,-45 -2324,748 -3213,1539 -1504,1473 -2935,3042 -4062,4826 -1269,1878 -2403,3844 -3393,5883 -800,1789 -1691,3585 -1954,5552 -134,838 -123,1741 260,2515 273,570 882,962 1520,922 792,-45 1531,-400 2195,-815 806,-535 1588,-1119 2254,-1826 710,-706 1280,-1532 1905,-2310 476,-596 922,-1245 1095,-2001 163,-532 92,-1091 142,-1636 433,-76 885,-45 1307,-186 452,-583 750,-1272 1150,-1891 2055,-3629 4132,-7263 5742,-11118 398,-879 662,-1806 826,-2755 1292,-20 2823,-239 3866,701 132,834 -14,1697 -327,2476 -572,1425 -1496,2664 -2293,3966 -2876,4684 -5855,9312 -8464,14153 -418,882 -990,1723 -1147,2703 1172,-231 1985,-1203 2669,-2109 613,-731 1200,-1487 1655,-2329 367,-664 752,-1346 858,-2110 59,-548 -159,-1089 -76,-1637 475,-63 963,-50 1429,-172 268,-431 438,-916 707,-1347 490,-809 996,-1633 1205,-2567 109,-451 73,-918 105,-1377 831,-99 1849,-101 2460,569 441,475 374,1159 367,1756 7,756 -236,1483 -513,2178 -379,908 -833,1786 -1359,2618 -1154,1840 -2418,3611 -3488,5501 -215,383 -433,768 -582,1182 562,-146 1039,-497 1481,-859 833,-722 1567,-1556 2188,-2467 645,-945 1353,-1882 1691,-2989 223,-666 -45,-1352 -9,-2028 501,-182 1058,-178 1538,-418 288,-272 380,-679 548,-1025 336,-845 896,-1585 1187,-2450 185,-540 119,-1115 144,-1673 669,-78 1339,43 2001,134 662,115 1436,282 1812,898 194,563 43,1192 -291,1672 -1963,2921 -3917,5860 -5575,8967 -305,667 -714,1319 -788,2062 391,-78 757,-259 1066,-510 1372,-1071 2403,-2508 3274,-3999 346,-602 704,-1219 842,-1906 111,-614 -118,-1217 -111,-1830 512,-93 1053,34 1553,-111 627,-1369 1474,-2618 2246,-3907 1605,-2768 3221,-5530 4692,-8373z"/>
    <path class="fil1" d="M39856 16783c1101,-125 2234,3 3336,121 50,972 15,1962 -280,2897 -210,814 -609,1586 -675,2432 1100,164 2213,-115 3318,11 91,492 -80,988 -349,1395 -785,1166 -1864,2084 -2805,3116 -837,966 -2076,1588 -3357,1646 -397,42 -801,-9 -1194,65 -342,277 -598,642 -903,956 -436,67 -881,31 -1321,34 -587,-9 -1180,49 -1758,-72 1054,-1048 2024,-2234 2542,-3643 240,-641 258,-1332 413,-1993 429,-1966 1313,-3792 2251,-5558 258,-471 465,-972 782,-1407m1263 7328c-501,972 -1208,1814 -1830,2709 -55,91 -97,188 -125,290 1406,-124 2221,-1430 2904,-2510 522,-630 329,-1524 47,-2215 -438,508 -666,1150 -996,1727z"/>
    <path class="fil1" d="M45657 30002c547,-208 1055,-515 1624,-660 138,1244 -423,2505 -1364,3312 -1059,981 -2525,1336 -3925,1453 -1939,116 -3883,-14 -5805,-268 -193,-27 -388,-48 -583,-43 176,466 523,895 515,1413 -88,645 -527,1150 -881,1669 -2161,3255 -4306,6520 -6464,9777 -1084,1668 -2245,3300 -3097,5104 -391,821 -664,1704 -1138,2481 -454,26 -975,-27 -1299,-382 -290,-302 -185,-759 -207,-1138 -18,-1139 365,-2235 832,-3258 1414,-3117 3284,-5995 5043,-8922 1214,-2011 2428,-4041 3277,-6238 123,-338 233,-691 207,-1054 -1417,-146 -2839,-273 -4266,-263 -701,-2 -1466,-26 -2069,396 -562,364 -1038,996 -1757,1017 118,-1031 730,-1981 1613,-2523 1537,-974 3398,-1166 5163,-1365 3981,-110 7962,56 11942,-32 890,-82 1795,-163 2639,-475z"/>
    <path class="fil1" d="M53777 32240c1029,-493 2137,-799 3252,-1024 648,-111 1307,-203 1966,-146 36,197 -11,394 -122,559 -426,729 -1086,1272 -1628,1908 -551,632 -1167,1253 -1454,2059 488,26 995,36 1463,-128 434,-854 706,-1802 1275,-2585 358,-484 993,-569 1514,-790 1506,-581 3088,-1198 4734,-1014 24,882 -885,1299 -1363,1910 -448,609 -965,1163 -1414,1770 -202,288 -415,593 -446,956 1157,-189 2320,-342 3485,-473 662,-97 1323,-227 1994,-231 -39,526 -222,1068 -616,1438 -608,552 -1254,1121 -2062,1353 -940,332 -1951,202 -2927,201 -568,10 -1128,-170 -1694,-92 -325,347 -527,783 -784,1178 -484,798 -1078,1522 -1578,2311 -1130,1763 -2223,3549 -3295,5348 -910,1503 -1788,3029 -2531,4622 -157,353 -341,713 -328,1111 480,-66 862,-399 1251,-660 669,-463 1158,-1121 1655,-1753 767,-888 1449,-1866 1911,-2950 383,-866 216,-1829 224,-2743 551,-138 1264,1 1615,-560 590,-742 990,-1628 1675,-2296 795,-792 1510,-1694 2487,-2274 539,-311 1140,-579 1777,-559 1176,1 2347,181 3503,381 338,75 702,107 1001,294 333,241 577,613 648,1020 105,864 -8,1745 -285,2569 -134,471 -368,918 -407,1413 409,-84 875,-119 1187,-430 351,-351 559,-809 832,-1217 551,-900 1347,-1608 2095,-2339 679,-610 1342,-1301 2217,-1625 959,-227 1940,49 2895,181 763,159 1574,20 2312,315 551,238 858,839 875,1421 31,776 -168,1539 -357,2287 -113,449 -327,875 -352,1344 957,151 1957,-68 2902,106 27,1100 -695,2020 -1357,2827 -932,1068 -1856,2237 -3185,2828 -666,314 -1413,180 -2121,234 -531,58 -991,373 -1378,722 -1088,1008 -2165,2081 -3518,2731 -1259,617 -2787,723 -4102,226 -483,-1028 -432,-2194 -385,-3300 -9,-207 44,-430 -48,-622 -356,102 -698,251 -1063,319 -701,68 -1419,66 -2109,214 -451,251 -688,755 -1057,1105 -1331,1286 -3003,2329 -4875,2534 -729,52 -1490,36 -2177,-234 -195,-747 -253,-1523 -413,-2278 -155,67 -292,164 -414,278 -1143,1092 -2530,1978 -4078,2353 -554,43 -1237,190 -1672,-253 -389,-380 -468,-940 -550,-1449 -426,49 -726,411 -1099,596 -1026,581 -2128,1258 -3358,1139 -368,3 -688,-235 -914,-506 -283,-350 -325,-817 -510,-1216 -223,-101 -350,184 -509,292 -1299,1274 -3295,1549 -5010,1170 -50,-500 -99,-1000 -184,-1496 -805,483 -1546,1084 -2433,1425 -601,251 -1264,418 -1915,291 -625,-173 -1009,-775 -1149,-1376 -169,-630 -194,-1292 -82,-1933 159,-1536 605,-3032 1198,-4454 1024,-2501 2395,-4923 4363,-6804 937,-831 2090,-1638 3402,-1558 379,-15 752,70 1090,239 493,218 793,691 1222,997 16,-171 32,-340 50,-509 989,-132 2035,-36 2939,406 406,213 793,515 1004,930 89,323 -115,624 -256,899 -1903,3284 -4315,6260 -5987,9679 -243,521 -504,1046 -604,1616 464,14 839,-302 1198,-554 1424,-1179 2560,-2675 3450,-4288 309,-566 538,-1186 590,-1832 22,-466 -122,-921 -107,-1387 518,-150 1059,-123 1589,-171 706,-1412 1566,-2737 2406,-4072 473,-799 1049,-1548 1402,-2412 -400,27 -846,389 -1208,95 -7,-323 207,-598 432,-806 454,-356 1076,-386 1533,-740 368,-289 602,-708 781,-1133 267,-641 527,-1286 847,-1903 249,-494 748,-785 1228,-1021m-240 6328c-2444,3928 -5113,7726 -7263,11829 -310,675 -669,1340 -841,2069 150,-13 309,-9 447,-83 1208,-625 2111,-1681 2900,-2763 560,-801 1100,-1622 1498,-2518 197,-456 465,-916 422,-1430 -11,-433 -146,-851 -152,-1284 543,-139 1238,24 1627,-471 441,-497 723,-1107 1066,-1671 693,-1187 1449,-2336 2131,-3529 119,-218 250,-447 244,-704 -527,5 -1047,-84 -1570,-115 -211,188 -359,432 -508,669m-13474 2897c-792,605 -1479,1341 -2082,2132 -1619,2064 -2963,4363 -3832,6843 -233,727 -474,1481 -402,2256 548,-85 1004,-441 1425,-779 878,-806 1607,-1763 2230,-2776 664,-1056 1279,-2144 1797,-3279 355,-777 734,-1591 697,-2467 17,-440 -115,-866 -126,-1303 525,-158 1076,-68 1614,-115 16,-321 85,-738 -241,-932 -408,-68 -765,199 -1080,418m24276 406c-839,868 -1787,1639 -2481,2637 -1255,1732 -2454,3517 -3410,5434 -394,871 -789,1828 -563,2801 471,133 941,-81 1353,-293 1038,-584 1845,-1490 2563,-2422 393,-535 765,-1116 880,-1781 218,-1195 353,-2412 745,-3567 288,-805 631,-1591 1042,-2342 150,-275 292,-560 359,-868 -178,114 -338,253 -488,401m11009 666c-677,608 -1305,1274 -1845,2009 -1265,1738 -2421,3558 -3411,5466 -276,573 -513,1172 -622,1802 -48,334 -51,749 251,972 426,23 830,-153 1197,-350 997,-558 1805,-1399 2478,-2312 402,-565 831,-1153 959,-1849 178,-1025 452,-2029 604,-3059 101,-762 568,-1391 858,-2086 223,-560 541,-1082 713,-1663 -452,288 -782,721 -1182,1071m-7576 2375c-581,1537 -1663,2800 -2586,4133 852,119 1496,-576 1936,-1211 438,-667 1032,-1341 990,-2190 13,-274 -20,-651 -340,-732m10037 2809c-305,443 -704,830 -918,1329 391,28 739,-171 1045,-391 696,-519 1297,-1197 1629,-2006 238,-556 303,-1223 -51,-1746 -514,968 -1005,1960 -1704,2814z"/>
   </g>
   <path class="fil2" d="M64339 41871c150,-148 309,-288 488,-401 -67,308 -209,593 -359,868 -411,750 -755,1537 -1042,2342 -391,1155 -526,2372 -745,3567 -115,665 -486,1246 -880,1781 -718,932 -1525,1838 -2563,2422 -411,213 -882,426 -1353,293 -226,-973 168,-1930 563,-2801 956,-1918 2155,-3702 3410,-5434 694,-998 1642,-1769 2481,-2637zm11009 666c400,-350 730,-783 1182,-1071 -172,581 -490,1103 -713,1663 -290,695 -757,1324 -858,2086 -151,1030 -425,2034 -604,3059 -128,697 -557,1284 -959,1849 -673,913 -1481,1754 -2478,2312 -367,197 -771,373 -1197,350 -302,-223 -299,-638 -251,-972 109,-630 346,-1229 622,-1802 990,-1908 2146,-3728 3411,-5466 540,-734 1167,-1400 1845,-2009zm-34842 -38243c376,-230 845,-128 1261,-102 1178,58 2425,202 3433,865 469,290 780,841 709,1398 -128,1007 -622,1919 -1129,2781 -768,1261 -1641,2451 -2463,3676 -637,953 -1296,1907 -1718,2978l32 103c912,147 1872,-94 2763,206 311,93 642,346 617,707 130,1570 -465,3072 -609,4615 668,1 1338,-26 2006,-2 305,1 630,102 835,338 105,706 32,1450 -307,2088 -489,998 -1281,1808 -2114,2526 -899,800 -1632,1841 -2769,2326 -705,318 -1487,361 -2247,331 -356,-47 -638,198 -951,315 -301,33 -607,19 -906,-20 305,-314 560,-679 903,-956 392,-74 797,-23 1194,-65 1281,-58 2520,-680 3357,-1646 941,-1032 2020,-1949 2805,-3116 269,-407 440,-903 349,-1395 -1105,-126 -2218,152 -3318,-11 66,-847 465,-1619 675,-2432 294,-936 330,-1926 280,-2897 -1103,-117 -2235,-246 -3336,-121 -317,435 -524,937 -782,1407 -938,1766 -1822,3592 -2251,5558 -155,660 -173,1351 -413,1993 -517,1409 -1488,2595 -2542,3643 -151,97 -342,53 -510,72 -575,-13 -1153,52 -1724,-19 526,-1323 1241,-2560 1927,-3806 3338,-5882 7151,-11477 10695,-17235 265,-472 637,-881 862,-1374 85,-450 65,-1012 -383,-1266 -1081,-743 -2470,-907 -3750,-835 -357,1749 -1170,3353 -1962,4938 -1471,2843 -3087,5605 -4692,8373 -772,1289 -1619,2538 -2246,3907 -500,145 -1041,18 -1553,111 -7,613 223,1216 111,1830 -139,688 -497,1304 -842,1906 -871,1491 -1902,2928 -3274,3999 -309,251 -675,432 -1066,510 74,-743 483,-1395 788,-2062 1658,-3108 3612,-6046 5575,-8967 334,-480 485,-1109 291,-1672 -376,-616 -1150,-783 -1812,-898 -662,-91 -1331,-213 -2001,-134 -25,558 41,1133 -144,1673 -291,865 -850,1605 -1187,2450 -168,347 -260,754 -548,1025 -480,240 -1037,236 -1538,418 -36,676 232,1362 9,2028 -339,1107 -1047,2045 -1691,2989 -621,910 -1355,1745 -2188,2467 -442,363 -920,714 -1481,859 149,-414 367,-799 582,-1182 1071,-1890 2335,-3661 3488,-5501 526,-832 981,-1710 1359,-2618 276,-695 519,-1422 513,-2178 7,-597 74,-1281 -367,-1756 -610,-671 -1629,-668 -2460,-569 -32,458 5,925 -105,1377 -209,933 -715,1757 -1205,2567 -269,431 -439,916 -707,1347 -466,122 -954,109 -1429,172 -83,548 135,1089 76,1637 -106,764 -491,1446 -858,2110 -455,842 -1042,1598 -1655,2329 -684,906 -1497,1878 -2669,2109 157,-980 729,-1821 1147,-2703 2609,-4841 5588,-9468 8464,-14153 797,-1301 1721,-2540 2293,-3966 314,-779 459,-1641 327,-2476 -1042,-940 -2573,-722 -3866,-701 -165,949 -429,1877 -826,2755 -1611,3854 -3687,7488 -5742,11118 -400,619 -698,1308 -1150,1891 -422,141 -874,110 -1307,186 -50,544 20,1104 -142,1636 -173,756 -618,1405 -1095,2001 -625,777 -1195,1604 -1905,2310 -666,707 -1448,1290 -2254,1826 -664,415 -1403,770 -2195,815 -638,40 -1247,-352 -1520,-922 -383,-774 -394,-1678 -260,-2515 263,-1966 1154,-3762 1954,-5552 990,-2039 2124,-4006 3393,-5883 1128,-1785 2559,-3353 4062,-4826 889,-791 1963,-1585 3213,-1539 -316,633 -795,1164 -1145,1778 -1020,1745 -1935,3548 -2850,5348 -806,1515 -1567,3070 -2627,4430 -298,385 -699,691 -930,1128 -116,152 32,414 230,384 1153,132 2267,-406 3138,-1120 1004,-782 1808,-1780 2550,-2806 1754,-2375 3007,-5063 4601,-7538 647,-1107 1395,-2173 1836,-3384 -521,-504 -1372,-466 -2024,-266 -665,175 -1163,683 -1783,947 -416,-340 -768,-776 -1280,-982 -1136,-515 -2434,-252 -3546,190 -1389,580 -2627,1483 -3702,2527 -915,1022 -1762,2105 -2623,3174 -1196,1503 -2051,3230 -2897,4945 -1248,2390 -2131,4989 -2498,7665 -49,1215 -167,2482 264,3648 316,904 966,1725 1865,2097 1130,476 2403,421 3587,219 1134,-185 2180,-721 3099,-1396 416,-298 787,-665 1254,-888 97,679 -160,1463 281,2054 402,471 1087,367 1638,359 1397,-66 2645,-806 3678,-1699 286,557 236,1420 910,1683 1165,148 2396,-77 3395,-710 512,-294 953,-715 1511,-924 119,455 83,929 150,1390 322,158 690,144 1040,168 -75,231 -166,458 -292,667 -674,53 -1163,-527 -1757,-725 -318,84 -566,330 -865,463 -1039,512 -2230,365 -3349,364 -558,31 -795,-525 -1142,-845 -302,8 -580,138 -859,236 -962,357 -1962,657 -2994,688 -467,-24 -966,-94 -1344,-393 -396,-319 -699,-738 -1101,-1049 -34,0 -103,-1 -139,-1 -298,224 -549,513 -880,693 -815,456 -1761,560 -2672,658 -1373,61 -2864,124 -4067,-657 -1394,-918 -1985,-2669 -1937,-4278 -91,-2219 440,-4411 1182,-6487 981,-2872 2417,-5577 4119,-8084 1588,-2264 3426,-4463 5854,-5858 1249,-732 2753,-984 4169,-685 574,128 1125,343 1698,472 484,107 955,-101 1429,-169 933,-155 1872,-284 2819,-288 42,-437 34,-1032 535,-1206 796,-26 1594,-30 2389,-2 643,85 1347,121 1881,535 572,431 733,1208 665,1887 -131,1091 -581,2106 -1045,3089 -577,1166 -1275,2267 -1993,3350 -227,351 -493,679 -675,1057 543,389 1238,483 1786,864 438,318 796,779 903,1319 82,483 130,972 131,1462 16,247 -31,529 153,725 483,-659 833,-1420 998,-2221 128,-530 119,-1097 359,-1596 147,-165 376,-164 579,-173 829,-15 1690,-90 2478,227 1065,368 1965,1099 2664,1972 572,-1322 1353,-2535 2066,-3782 1482,-2768 3203,-5425 4324,-8373 233,-587 275,-1254 624,-1791m-27143 8309c-726,643 -1337,1402 -1938,2160 -1713,2215 -3209,4597 -4486,7088 -928,1890 -1783,3861 -2049,5968 -40,775 -82,1600 281,2313 868,135 1719,-200 2459,-623 1514,-854 2729,-2145 3745,-3536 595,-921 1272,-1908 1272,-3047 -205,-74 -405,117 -601,169 -1074,508 -2328,802 -3491,431 -235,-534 -184,-1146 -131,-1713 735,-659 1361,-1429 1908,-2249 1198,-1777 2168,-3696 3072,-5636 230,-559 534,-1104 621,-1710 -249,73 -469,215 -662,385zm27756 11508c330,-576 558,-1219 996,-1727 282,691 475,1586 -47,2215 -683,1080 -1498,2386 -2904,2510 28,-102 70,-199 125,-290 622,-895 1329,-1737 1830,-2709zm4867 4889c638,-130 1346,-368 1962,-30 69,896 174,1873 -298,2686 -954,1728 -2806,2842 -4741,3097 -1510,174 -3036,75 -4552,53 -490,5 -974,-97 -1464,-93 -166,368 -132,804 -273,1187 -374,1072 -1064,1989 -1713,2908 -1597,2213 -3072,4510 -4599,6772 -1039,1556 -1995,3166 -2954,4772 -698,1166 -1271,2403 -1770,3666 -165,388 -344,950 -863,930 -613,8 -1319,118 -1836,-288 -393,-293 -625,-770 -631,-1258 -90,-1176 267,-2322 652,-3418 1818,-4799 4952,-8918 7372,-13406 422,-854 956,-1682 1115,-2636 -884,-209 -1800,-161 -2701,-184 -793,7 -1636,-41 -2357,343 -519,290 -806,939 -1439,1030 -346,20 -809,138 -1046,-194 -286,-334 -235,-800 -205,-1207 136,-996 740,-1915 1614,-2417 1732,-1092 3829,-1270 5814,-1486 1138,-51 2278,-14 3416,-59 908,-125 1818,49 2728,22 1666,5 3334,40 5001,5 1294,-45 2525,-469 3766,-795m-330 1003c-845,313 -1749,393 -2639,475 -3979,88 -7961,-78 -11942,32 -1765,199 -3626,391 -5163,1365 -883,542 -1495,1492 -1613,2523 720,-22 1196,-654 1757,-1017 602,-422 1367,-398 2069,-396 1427,-10 2848,117 4266,263 26,363 -84,716 -207,1054 -849,2197 -2063,4227 -3277,6238 -1760,2927 -3629,5805 -5043,8922 -467,1023 -850,2119 -832,3258 22,379 -83,835 207,1138 324,355 846,408 1299,382 474,-777 747,-1661 1138,-2481 853,-1804 2013,-3436 3097,-5104 2159,-3257 4303,-6521 6464,-9777 354,-518 793,-1024 881,-1669 8,-518 -339,-947 -515,-1413 195,-5 390,16 583,43 1922,255 3866,384 5805,268 1400,-117 2866,-472 3925,-1453 941,-807 1502,-2069 1364,-3312 -569,146 -1078,452 -1624,660zm9492 904c1255,-408 2570,-743 3900,-616 464,121 764,514 1125,795 192,31 375,-57 555,-110 1238,-448 2560,-825 3889,-662 417,83 1016,290 993,809 36,594 -406,1062 -773,1475 -483,467 -834,1046 -1283,1544 -114,150 -294,272 -313,475 670,23 1353,28 2005,-149 743,-168 1564,-373 2281,1 258,377 240,868 183,1303 -251,876 -1012,1445 -1666,2018 -109,69 -140,193 -152,314 845,225 1719,300 2576,465 430,72 802,382 953,791 296,781 221,1632 383,2440 865,-735 1531,-1672 2404,-2398 961,-885 2211,-1554 3545,-1537 342,-1 685,-3 1028,36 1091,184 2226,224 3262,650 706,289 1274,991 1255,1775 -1,949 63,1912 -134,2848 -20,131 -27,265 -19,399 554,10 1109,-33 1663,6 367,35 809,207 883,616 134,639 -69,1312 -393,1865 -779,1297 -1807,2421 -2880,3478 -460,448 -940,893 -1511,1197 -729,359 -1562,305 -2350,357 -789,83 -1431,598 -1948,1163 -1299,1421 -3026,2471 -4910,2892 -946,214 -2086,113 -2762,-659 -801,-887 -929,-2160 -912,-3302 -833,-31 -1808,-134 -2477,474 -726,675 -1364,1460 -2209,1997 -1011,650 -2105,1250 -3317,1391 -851,34 -1778,124 -2528,-364 -499,-272 -752,-791 -1040,-1250 -615,132 -1086,598 -1629,889 -1140,712 -2538,857 -3847,691 -522,-119 -809,-604 -1217,-890 -598,80 -1130,407 -1703,581 -892,344 -1868,467 -2813,314 -514,-150 -850,-576 -1178,-968 -966,340 -1894,827 -2912,997 -675,28 -1397,110 -2023,-200 -381,-157 -699,-425 -1056,-623 -396,69 -725,335 -1096,480 -841,406 -1793,607 -2721,440 -754,-203 -1323,-854 -1572,-1575 -377,-959 -232,-2011 -232,-3016 214,-1829 805,-3600 1594,-5258 679,-1520 1598,-2917 2569,-4261 771,-1078 1692,-2068 2825,-2769 1120,-712 2539,-921 3820,-583 555,128 1080,385 1655,419 565,24 1126,107 1693,134 784,97 1541,457 2096,1024 368,375 580,864 862,1299 364,-538 704,-1105 950,-1706 -218,-576 -346,-1200 -201,-1813 314,-635 1048,-834 1607,-1186 972,-516 1391,-1612 1738,-2590 178,-550 560,-1017 1055,-1316 748,-474 1596,-758 2431,-1040m-1372 1334c-480,235 -979,526 -1228,1021 -319,617 -580,1262 -847,1903 -178,425 -413,845 -781,1133 -457,354 -1080,384 -1533,740 -225,208 -439,483 -432,806 363,293 808,-68 1208,-95 -352,864 -929,1613 -1401,2412 -840,1334 -1700,2660 -2406,4072 -530,48 -1071,20 -1589,171 -15,466 128,921 107,1387 -52,647 -281,1266 -590,1832 -890,1613 -2026,3109 -3450,4288 -359,251 -734,567 -1198,554 100,-571 360,-1096 604,-1616 1672,-3419 4084,-6395 5987,-9679 141,-275 344,-576 256,-899 -210,-415 -598,-717 -1004,-930 -905,-442 -1951,-538 -2939,-406 -18,169 -34,339 -50,509 -429,-306 -729,-779 -1222,-997 -338,-168 -712,-253 -1090,-239 -1312,-80 -2465,727 -3402,1558 -1968,1881 -3338,4303 -4363,6804 -593,1422 -1039,2918 -1198,4453 -113,641 -88,1304 82,1933 140,601 524,1204 1149,1376 651,127 1314,-40 1915,-291 887,-341 1628,-942 2433,-1425 85,496 134,996 184,1496 1715,380 3711,105 5010,-1170 159,-108 286,-393 509,-292 185,399 227,866 510,1216 226,271 546,509 914,506 1230,119 2331,-558 3358,-1139 373,-184 673,-547 1099,-596 82,509 161,1070 550,1449 435,443 1118,297 1672,253 1548,-375 2935,-1261 4078,-2353 122,-115 259,-211 414,-278 159,755 217,1531 413,2278 687,271 1448,286 2177,234 1872,-205 3544,-1248 4875,-2534 369,-350 606,-854 1057,-1105 690,-148 1407,-145 2109,-214 365,-68 707,-217 1063,-319 92,192 39,415 48,622 -47,1106 -98,2272 385,3300 1315,497 2843,391 4102,-226 1353,-650 2430,-1723 3518,-2731 386,-349 847,-664 1378,-722 708,-55 1455,80 2121,-234 1329,-591 2253,-1760 3185,-2828 663,-807 1384,-1727 1357,-2827 -945,-174 -1945,45 -2902,-106 25,-468 240,-895 352,-1344 189,-748 388,-1511 357,-2287 -17,-582 -324,-1183 -875,-1421 -738,-294 -1549,-156 -2312,-315 -955,-132 -1936,-408 -2895,-181 -874,324 -1538,1015 -2217,1625 -748,731 -1544,1439 -2095,2339 -273,408 -481,866 -832,1217 -311,310 -777,346 -1187,430 39,-494 273,-942 407,-1413 277,-824 390,-1705 285,-2569 -70,-407 -315,-779 -648,-1020 -299,-188 -664,-219 -1001,-294 -1156,-200 -2327,-380 -3503,-381 -637,-19 -1238,248 -1777,559 -978,581 -1693,1482 -2487,2274 -685,668 -1086,1554 -1675,2296 -351,562 -1064,423 -1615,560 -8,914 159,1877 -224,2743 -462,1083 -1143,2062 -1911,2950 -497,632 -986,1290 -1655,1753 -390,261 -772,594 -1251,660 -13,-398 172,-757 328,-1111 743,-1593 1621,-3119 2531,-4622 1072,-1799 2165,-3585 3295,-5348 500,-789 1093,-1513 1578,-2311 257,-394 459,-831 784,-1178 566,-78 1125,102 1694,92 976,1 1987,131 2927,-201 808,-232 1454,-800 2062,-1353 394,-369 577,-912 616,-1438 -671,3 -1332,134 -1994,231 -1165,131 -2328,284 -3485,473 31,-363 243,-668 446,-956 449,-607 966,-1161 1414,-1770 477,-610 1387,-1028 1363,-1910 -1646,-184 -3228,433 -4734,1014 -521,221 -1156,306 -1514,790 -570,783 -841,1731 -1275,2585 -468,165 -975,155 -1463,128 286,-806 903,-1427 1454,-2059 542,-637 1201,-1180 1628,-1908 110,-165 158,-363 122,-559 -659,-58 -1319,34 -1966,146 -1115,225 -2223,531 -3252,1024zm-240 6328c149,-238 297,-482 508,-669 523,31 1042,119 1570,115 6,257 -125,485 -244,704 -682,1193 -1438,2343 -2131,3529 -343,564 -625,1174 -1066,1671 -389,494 -1083,332 -1627,471 7,433 141,851 152,1284 43,514 -225,974 -422,1430 -398,896 -938,1716 -1498,2518 -789,1082 -1691,2138 -2900,2763 -138,74 -297,70 -447,83 172,-729 531,-1394 841,-2069 2151,-4103 4820,-7901 7263,-11829zm-13474 2897c315,-219 672,-487 1080,-418 326,194 257,612 241,932 -538,47 -1089,-43 -1614,115 11,436 143,863 126,1303 38,875 -342,1689 -697,2467 -518,1136 -1133,2223 -1797,3279 -623,1013 -1353,1970 -2230,2776 -422,338 -878,693 -1425,779 -72,-775 169,-1529 402,-2256 868,-2480 2213,-4779 3832,-6843 604,-791 1290,-1528 2082,-2132zm27709 3446c319,81 352,458 340,732 42,849 -552,1523 -990,2190 -440,634 -1083,1330 -1936,1211 923,-1333 2005,-2596 2586,-4133zm10037 2809c699,-855 1190,-1846 1704,-2814 355,523 289,1190 51,1746 -332,809 -933,1487 -1629,2006 -306,221 -654,419 -1045,391 215,-499 614,-886 918,-1329z"/>
  </g>
 </g>
</svg>
